<svg width="20" height="20" viewBox="0 0 20 20" fill="none" xmlns="http://www.w3.org/2000/svg">
<path xmlns="http://www.w3.org/2000/svg" d="M18.3211 1.67898C17.6254 0.983328 16.6555 1.05976 15.9137 1.30702C15.1484 1.56214 14.404 2.0605 13.9017 2.56286L10.6393 5.82526L7.9876 4.94138L8.15641 4.77257C8.40049 4.52849 8.40049 4.13276 8.15641 3.88869L7.27252 3.0048C7.02845 2.76073 6.63272 2.76072 6.38864 3.0048L5.33595 4.05749L3.78365 3.54006C3.10989 3.31547 2.36708 3.49083 1.8649 3.99302L0.643398 5.21451C0.513488 5.34442 0.447317 5.52491 0.46247 5.708C0.477623 5.8911 0.572567 6.05825 0.722067 6.16504L2.40415 7.36653L1.85215 8.47054C1.73184 8.71116 1.779 9.00176 1.96922 9.19199C2.15945 9.38221 2.45005 9.42937 2.69067 9.30906L4.12187 8.59347L6.40067 10.2212L4.74118 12.5445L2.41117 12.5445C2.15838 12.5445 1.93048 12.6967 1.83374 12.9303C1.737 13.1638 1.79048 13.4327 1.96922 13.6114L6.38864 18.0308C6.56739 18.2096 6.83621 18.263 7.06976 18.1663C7.30331 18.0696 7.45558 17.8417 7.45558 17.5889V15.2589L9.77887 13.5994L11.4066 15.8782L10.691 17.3094C10.5707 17.55 10.6178 17.8406 10.8081 18.0308C10.9983 18.221 11.2889 18.2682 11.5295 18.1479L12.6335 17.5959L13.835 19.278C13.9418 19.4275 14.1089 19.5224 14.292 19.5376C14.4751 19.5527 14.6556 19.4866 14.7855 19.3566L16.007 18.1352C16.5092 17.633 16.6846 16.8902 16.46 16.2164L15.9426 14.6641L16.9952 13.6114C17.2393 13.3673 17.2393 12.9716 16.9952 12.7275L16.1114 11.8436C15.8673 11.5996 15.4716 11.5996 15.2275 11.8436L15.0587 12.0124L14.1748 9.36079L17.4372 6.09839C17.9395 5.59603 18.4379 4.85168 18.693 4.08633C18.9403 3.34455 19.0167 2.37463 18.3211 1.67898ZM14.7855 3.44674C15.1671 3.06523 15.7485 2.6797 16.309 2.49288C16.893 2.29819 17.249 2.37463 17.4372 2.56286C17.6254 2.7511 17.7019 3.107 17.5072 3.69104C17.3203 4.25152 16.9348 4.83299 16.5533 5.21451L13.0178 8.75005C12.8504 8.91744 12.7919 9.16505 12.8668 9.38963L15.2741 16.6117C15.349 16.8363 15.2905 17.0839 15.1231 17.2513L14.4233 17.9511L10.4328 12.3642C10.2321 12.0834 9.84178 12.0183 9.5609 12.2189L6.46731 14.4286C6.30306 14.546 6.20558 14.7354 6.20558 14.9372V16.08L3.92005 13.7945H5.06282C5.26466 13.7945 5.45408 13.697 5.5714 13.5327L7.78111 10.4391C7.98174 10.1583 7.91668 9.76792 7.6358 9.56729L2.04898 5.5767L2.74878 4.8769C2.91617 4.7095 3.16378 4.65105 3.38836 4.72591L10.6104 7.13326C10.835 7.20813 11.0826 7.14967 11.25 6.98228L14.7855 3.44674Z" fill="#FF4545"/>
</svg>
