<svg width="34" height="68" viewBox="0 0 34 68" fill="none" xmlns="http://www.w3.org/2000/svg">
<path fill-rule="evenodd" clip-rule="evenodd" d="M16.7832 33.5019C17.2243 33.8515 16.8805 34.2528 16.6542 34.6922C16.4691 35.052 16.2911 35.6438 15.9919 35.8808L0.356651 67.5064C0.500698 67.3302 0.653767 67.2656 0.857544 67.0685C1.0691 66.8641 1.24767 66.6906 1.39919 66.5487L4.56397 63.3823C8.57108 59.5494 13.061 54.6176 17.1402 50.7675C19.7084 48.3435 22.948 44.7316 25.5 42.3772C27.2026 40.8065 29.9307 37.7921 31.8168 36.0316L33.8339 33.899C33.8145 33.8685 33.7854 33.8309 33.7705 33.8117C33.1915 33.0673 32.5103 32.6422 31.7274 31.7232C31.2473 31.1596 31.1879 31.0883 30.6713 30.6705L21.1911 21.1567C20.7111 20.5932 20.6517 20.5218 20.1351 20.1042L12.856 12.7415C12.0383 11.9033 11.2619 11.2983 10.7153 10.6618C9.5391 9.29276 6.54963 6.64622 5.50772 5.44955C4.42349 4.20451 3.76518 3.75679 2.38261 2.24343C1.77485 1.57825 0.786291 0.783435 0.298937 0.302486L16.7832 33.5019Z" fill="black" fill-opacity="0.2"/>
</svg>
