<svg width="34" height="68" viewBox="0 0 34 68" fill="none" xmlns="http://www.w3.org/2000/svg">
<path fill-rule="evenodd" clip-rule="evenodd" d="M17.2168 34.4981C16.7757 34.1485 17.1195 33.7472 17.3458 33.3078C17.5309 32.948 17.7089 32.3562 18.0081 32.1192L33.6433 0.493652C33.4993 0.669776 33.3462 0.73436 33.1425 0.931544C32.9309 1.1359 32.7523 1.30938 32.6008 1.45134L29.436 4.61767C25.4289 8.45059 20.939 13.3824 16.8598 17.2325C14.2916 19.6565 11.052 23.2684 8.49997 25.6228C6.79741 27.1935 4.06928 30.2079 2.18316 31.9684L0.166077 34.101C0.185521 34.1315 0.214607 34.1691 0.229541 34.1883C0.808519 34.9327 1.4897 35.3578 2.27261 36.2768C2.75265 36.8404 2.81207 36.9117 3.32867 37.3295L12.8089 46.8433C13.2889 47.4068 13.3483 47.4782 13.8649 47.8958L21.144 55.2585C21.9617 56.0967 22.7381 56.7017 23.2847 57.3382C24.4609 58.7072 27.4504 61.3538 28.4923 62.5505C29.5765 63.7955 30.2348 64.2432 31.6174 65.7566C32.2251 66.4218 33.2137 67.2166 33.7011 67.6975L17.2168 34.4981Z" fill="black" fill-opacity="0.2"/>
</svg>
