<svg width="35" height="35" viewBox="0 0 35 35" fill="none" xmlns="http://www.w3.org/2000/svg">
<path d="M5.10425 6.5625H7.37703C8.39162 6.5625 8.89892 6.5625 9.28084 6.83777C9.66276 7.11305 9.82318 7.59431 10.144 8.55683L10.9376 10.9375" stroke="#838383" stroke-width="2" stroke-linecap="round"/>
<path d="M25.5208 25.5208H11.7409C11.5276 25.5208 11.4211 25.5208 11.3402 25.5117C10.4833 25.4158 9.89626 24.6013 10.0762 23.7581C10.0932 23.6784 10.1269 23.5774 10.1943 23.3751C10.2692 23.1505 10.3066 23.0382 10.348 22.9392C10.7713 21.9248 11.729 21.2344 12.8252 21.1536C12.9323 21.1458 13.0507 21.1458 13.2874 21.1458H21.1458" stroke="#838383" stroke-width="2" stroke-linecap="round" stroke-linejoin="round"/>
<path d="M20.6772 21.1458H16.2422C14.3767 21.1458 13.4439 21.1458 12.7134 20.6641C11.9828 20.1825 11.6154 19.3251 10.8805 17.6104L10.6343 17.036C9.45383 14.2814 8.86357 12.9041 9.51196 11.9208C10.1603 10.9375 11.6588 10.9375 14.6556 10.9375H22.3569C25.7096 10.9375 27.3859 10.9375 28.0183 12.027C28.6506 13.1166 27.8188 14.5721 26.1554 17.4831L25.742 18.2067C24.9224 19.6407 24.5127 20.3577 23.8337 20.7518C23.1547 21.1458 22.3289 21.1458 20.6772 21.1458Z" stroke="#838383" stroke-width="2" stroke-linecap="round"/>
<path d="M24.7916 30.6249C25.597 30.6249 26.2499 29.972 26.2499 29.1666C26.2499 28.3612 25.597 27.7083 24.7916 27.7083C23.9862 27.7083 23.3333 28.3612 23.3333 29.1666C23.3333 29.972 23.9862 30.6249 24.7916 30.6249Z" fill="#838383"/>
<path d="M13.1251 30.6249C13.9305 30.6249 14.5834 29.972 14.5834 29.1666C14.5834 28.3612 13.9305 27.7083 13.1251 27.7083C12.3197 27.7083 11.6667 28.3612 11.6667 29.1666C11.6667 29.972 12.3197 30.6249 13.1251 30.6249Z" fill="#838383"/>
</svg>
