<svg width="22" height="21" viewBox="0 0 22 21" fill="none" xmlns="http://www.w3.org/2000/svg">
<path d="M3.88523 1.6497L3.61342 1.08081H3.62824L4.31387 2.51269L4.5859 3.08081H5.2158H20.1201C20.1224 3.08081 20.1238 3.08102 20.1246 3.08123L16.5262 9.56136C16.3483 9.87381 16.0142 10.0808 15.6342 10.0808H8.12407H7.53462L7.24916 10.5965L6.34944 12.222C6.23649 12.4226 6.19161 12.6344 6.19161 12.8308C6.19161 13.5307 6.75781 14.0808 7.44363 14.0808H7.0152C6.44598 14.0808 5.99906 13.626 5.99906 13.0808C5.99906 12.9102 6.04185 12.7487 6.12382 12.5949L7.48112 10.1514L7.73169 9.7003L7.50923 9.2347L3.88523 1.6497ZM6.00915 18.0808C6.00915 17.5291 6.45253 17.0808 7.0152 17.0808C7.58442 17.0808 8.03133 17.5357 8.03133 18.0808C8.03133 18.626 7.58442 19.0808 7.0152 19.0808C6.45253 19.0808 6.00915 18.6325 6.00915 18.0808ZM16.0898 18.0808C16.0898 17.5291 16.5332 17.0808 17.0959 17.0808C17.6651 17.0808 18.112 17.5357 18.112 18.0808C18.112 18.626 17.6651 19.0808 17.0959 19.0808C16.5332 19.0808 16.0898 18.6325 16.0898 18.0808Z" stroke="black" stroke-width="2"/>
</svg>
