<svg xmlns="http://www.w3.org/2000/svg" xmlns:xlink="http://www.w3.org/1999/xlink" version="1.1" id="Слой_1" x="0px" y="0px" fill="#405db6" viewBox="0 0 100 100" style="enable-background:new 0 0 100 100;" xml:space="preserve">
<path d="M21.2,71.1l50.1-28.6c1-0.4,1.4-1.8,0.8-2.8L54.3,8c-0.6-1-1.8-1.2-2.8-0.8L1.1,35.8c-1,0.6-1.4,1.8-0.8,2.8l17.9,31.7  c0.4,0.4,0.8,0.8,1.4,1h0.6C20.4,71.3,20.8,71.3,21.2,71.1z M51.6,12l15.6,27.8L21,66.2L5.2,38.4L51.6,12z M42.3,97.7l15.6-8.9  c0.6-0.4,1-0.8,1-1.4c0.2-0.6,0.2-1.2-0.2-1.6L48.2,67L47,54.8c-0.2-0.6-0.6-1.2-1.2-1.6c-0.6-0.4-1.4-0.2-2,0L23.6,64.6  c-1,0.6-1.4,2-0.8,3l16.4,29.2c0.4,0.6,1.2,1,1.8,1C41.5,97.9,41.9,97.9,42.3,97.7z M42.9,58.7l1,9.1c0,0.4,0.2,0.6,0.4,0.8  l9.7,17.2l-12.2,6.9L27.7,67.4L42.9,58.7z M67.7,35.6c5.9-4.5,8.1-11.8,5.1-17.2c-3.2-5.5-10.6-7.5-17.5-4.7c-1,0.6-1.6,1.8-1.2,2.8  c0.6,1.2,1.8,1.6,2.8,1.2c4.9-2,9.9-0.8,12,2.6c2,3.7,0.4,8.5-3.9,11.8c-0.8,0.6-1,2-0.4,2.8c0.4,0.6,1,1,1.8,1  C66.8,36,67.2,35.8,67.7,35.6z M73.1,20.8L98.9,6.1c1-0.6,1.4-1.8,0.8-3c-0.6-1-2-1.4-3-0.8L70.9,16.9c-1,0.6-1.4,2-0.8,3  c0.4,0.6,1.2,1,1.8,1C72.3,21,72.7,21,73.1,20.8z M17.1,42.7l28.2-16c1-0.6,1.4-1.8,0.8-2.8c-0.6-1-2-1.4-3-0.8L14.9,38.8  c-1,0.6-1.4,2-0.8,3c0.4,0.8,1.2,1,2,1C16.3,42.9,16.7,42.9,17.1,42.7z M23.8,54.4l28.2-16c1-0.6,1.2-1.8,0.8-3c-0.6-1-2-1.2-3-0.8  l-28.2,16c-1,0.6-1.4,2-0.8,3c0.4,0.6,1.2,1,1.8,1C23,54.6,23.4,54.6,23.8,54.4z"/>
</svg>