<svg width="31" height="37" viewBox="0 0 31 37" fill="none" xmlns="http://www.w3.org/2000/svg">
<path d="M8.86417 36.4382C8.82961 36.4382 8.79505 36.4344 8.76124 36.4277C8.72819 36.4209 8.69513 36.4111 8.66282 36.3976C8.63127 36.3848 8.60046 36.3683 8.57267 36.3495C8.54337 36.33 8.51632 36.3082 8.49228 36.2842C8.39461 36.1865 8.33826 36.0505 8.33826 35.9123C8.33826 35.8777 8.34201 35.8431 8.34878 35.8093C8.35554 35.7763 8.3653 35.7432 8.37883 35.7109C8.3916 35.6794 8.40813 35.6485 8.42691 35.62C8.44645 35.5914 8.46823 35.5644 8.49228 35.5404C8.51632 35.5163 8.54336 35.4938 8.57191 35.475C8.60046 35.4562 8.63127 35.4397 8.66282 35.4269C8.69438 35.4134 8.72819 35.4036 8.76124 35.3969C8.82886 35.3833 8.89949 35.3833 8.9671 35.3969C9.00091 35.4036 9.03397 35.4134 9.06553 35.4269C9.09708 35.4397 9.12788 35.4562 9.15643 35.475C9.18498 35.4938 9.21203 35.5163 9.23607 35.5404C9.26012 35.5644 9.28265 35.5914 9.30144 35.62C9.32022 35.6485 9.33675 35.6794 9.34952 35.7109C9.36304 35.7432 9.37281 35.7763 9.37957 35.8093C9.38633 35.8431 9.39009 35.8777 9.39009 35.9123C9.39009 36.0505 9.33374 36.1865 9.23607 36.2842C9.21203 36.3082 9.18498 36.33 9.15643 36.3495C9.12788 36.3683 9.09708 36.3848 9.06553 36.3976C9.03397 36.4111 9.00091 36.4209 8.9671 36.4277C8.9333 36.4344 8.89873 36.4382 8.86417 36.4382Z" fill="black"/>
<path d="M30.4741 13.6187H28.8084C28.5177 13.6187 28.2825 13.3836 28.2825 13.0928C28.2825 12.8021 28.5177 12.5669 28.8084 12.5669H30.4741C30.7649 12.5669 31 12.8021 31 13.0928C31 13.3836 30.7649 13.6187 30.4741 13.6187Z" fill="black"/>
<path d="M30.4741 17.4693H28.8084C28.5177 17.4693 28.2825 17.2342 28.2825 16.9434C28.2825 16.6526 28.5177 16.4175 28.8084 16.4175H30.4741C30.7649 16.4175 31 16.6526 31 16.9434C31 17.2342 30.7649 17.4693 30.4741 17.4693Z" fill="black"/>
<path d="M30.4741 21.3197H28.8084C28.5177 21.3197 28.2825 21.0845 28.2825 20.7937C28.2825 20.503 28.5177 20.2678 28.8084 20.2678H30.4741C30.7649 20.2678 31 20.503 31 20.7937C31 21.0845 30.7649 21.3197 30.4741 21.3197Z" fill="black"/>
<path d="M30.4741 25.1695H28.8084C28.5177 25.1695 28.2825 24.9343 28.2825 24.6436C28.2825 24.3528 28.5177 24.1177 28.8084 24.1177H30.4741C30.7649 24.1177 31 24.3528 31 24.6436C31 24.9343 30.7649 25.1695 30.4741 25.1695Z" fill="black"/>
<path d="M30.4741 29.0199H28.8084C28.5177 29.0199 28.2825 28.7847 28.2825 28.4939C28.2825 28.2032 28.5177 27.968 28.8084 27.968H30.4741C30.7649 27.968 31 28.2032 31 28.4939C31 28.7847 30.7649 29.0199 30.4741 29.0199Z" fill="black"/>
<path d="M30.4741 32.8702H28.8084C28.5177 32.8702 28.2825 32.635 28.2825 32.3443C28.2825 32.0535 28.5177 31.8184 28.8084 31.8184H30.4741C30.7649 31.8184 31 32.0535 31 32.3443C31 32.635 30.7649 32.8702 30.4741 32.8702Z" fill="black"/>
<path d="M24.7469 30.711C24.4561 30.711 24.221 30.4758 24.221 30.1851V21.9004L16.4629 29.6592H22.0715C22.3622 29.6592 22.5974 29.8943 22.5974 30.1851C22.5974 30.4758 22.3622 30.711 22.0715 30.711H15.1932C14.9806 30.711 14.789 30.5825 14.7071 30.3864C14.626 30.1896 14.6711 29.9634 14.8213 29.8132L24.375 20.2595C24.5252 20.1093 24.7514 20.0642 24.9482 20.1453C25.1451 20.2265 25.2728 20.4188 25.2728 20.6314V30.1851C25.2728 30.4751 25.0376 30.711 24.7469 30.711Z" fill="black"/>
<path d="M30.4741 36.4382H10.5809C10.2902 36.4382 10.055 36.203 10.055 35.9123C10.055 35.6215 10.2902 35.3864 10.5809 35.3864H29.9482V8.07323L2.63581 35.3864H7.06103C7.35178 35.3864 7.58694 35.6215 7.58694 35.9123C7.58694 36.203 7.35178 36.4382 7.06103 36.4382H1.3661C1.15348 36.4382 0.961892 36.3097 0.879999 36.1136C0.798857 35.9168 0.843936 35.6906 0.994198 35.5404L30.1022 6.43237C30.2525 6.28211 30.4786 6.23703 30.6755 6.31817C30.8723 6.39931 31 6.59165 31 6.80427V35.9123C31 36.203 30.7649 36.4382 30.4741 36.4382Z" fill="black"/>
<path d="M24.9685 7.22144C24.8565 7.22144 24.7438 7.18613 24.6492 7.11325C24.4508 6.96149 24.3877 6.69252 24.4929 6.47013C24.5575 6.31386 24.6935 6.19741 24.8588 6.15909C25.0361 6.11777 25.2224 6.17036 25.3509 6.29958L25.3577 6.30635C25.5628 6.51145 25.5628 6.84504 25.3577 7.05014L25.3404 7.06742C25.2382 7.1696 25.1037 7.22144 24.9685 7.22144Z" fill="black"/>
<path d="M3.86568 27.6376C3.30671 27.6376 2.74848 27.425 2.32324 26.9997L0.683883 25.3604C-0.1666 24.5099 -0.1666 23.126 0.683883 22.2755L2.14443 20.8149C2.34954 20.6098 2.68312 20.6098 2.88823 20.8149C3.09333 21.02 3.09333 21.3536 2.88823 21.5587L1.42768 23.0193C0.987412 23.4595 0.987412 24.1763 1.42768 24.6166L3.06704 26.2559C3.50731 26.6962 4.22406 26.6962 4.66432 26.2559L23.3441 7.57609C23.0692 7.48143 22.8122 7.32441 22.5951 7.10803C22.2134 6.72636 22.0053 6.19894 22.0241 5.6595C21.4854 5.67829 20.958 5.47017 20.5756 5.08851C20.3584 4.87138 20.2014 4.61443 20.1068 4.33945L4.3653 20.0817C4.1602 20.2868 3.82661 20.2868 3.62151 20.0817C3.4164 19.8765 3.4164 19.543 3.62151 19.3379L20.3645 2.59491C20.553 2.40633 20.8521 2.38905 21.0609 2.55359C21.2705 2.71812 21.3239 3.01339 21.1849 3.24028C20.9685 3.59565 21.0241 4.0502 21.3194 4.34546C21.4997 4.52578 21.7393 4.62044 21.994 4.60917C22.2825 4.59715 22.565 4.70759 22.7701 4.9127C22.976 5.11781 23.0872 5.40105 23.0752 5.69031C23.0647 5.94575 23.1578 6.18467 23.3389 6.36573C23.6334 6.66025 24.0872 6.71584 24.4426 6.50097C24.6702 6.36348 24.9647 6.41757 25.1285 6.62644C25.2923 6.83605 25.2743 7.13432 25.0864 7.3229L5.40812 26.9997C4.98288 27.425 4.42466 27.6376 3.86568 27.6376Z" fill="black"/>
<path d="M4.50653 23.7028C4.37205 23.7028 4.23756 23.6517 4.13464 23.5488C3.92953 23.3437 3.92953 23.0101 4.13464 22.805L19.1007 7.83889C19.3058 7.63378 19.6394 7.63378 19.8445 7.83889C20.0496 8.044 20.0496 8.37758 19.8445 8.58269L4.87843 23.5488C4.77625 23.651 4.64177 23.7028 4.50653 23.7028Z" fill="black"/>
<path d="M20.7243 7.48502C20.6905 7.48502 20.656 7.48126 20.6222 7.4745C20.5884 7.46774 20.5553 7.45797 20.5237 7.44445C20.4914 7.43167 20.4614 7.41514 20.4328 7.39636C20.4035 7.37683 20.3772 7.35504 20.3524 7.331C20.2548 7.23258 20.1984 7.09734 20.1984 6.9591C20.1984 6.92454 20.2022 6.88998 20.2089 6.85617C20.2157 6.82236 20.2262 6.7893 20.239 6.75775C20.2518 6.72619 20.2683 6.69539 20.2871 6.66684C20.3066 6.63829 20.3284 6.61124 20.3524 6.5872C20.3772 6.56316 20.4035 6.54062 20.4328 6.52184C20.4614 6.50305 20.4914 6.48652 20.5237 6.47375C20.5553 6.46023 20.5884 6.45046 20.6222 6.4437C20.7927 6.40914 20.9745 6.46474 21.0962 6.5872C21.121 6.61124 21.1428 6.63829 21.1616 6.66684C21.1811 6.69539 21.1969 6.72619 21.2104 6.75775C21.2232 6.7893 21.2337 6.82236 21.2405 6.85617C21.2473 6.88998 21.2503 6.92454 21.2503 6.9591C21.2503 7.09734 21.1947 7.23258 21.0962 7.331C20.9986 7.42867 20.8633 7.48502 20.7243 7.48502Z" fill="black"/>
<path d="M3.86568 27.6834C3.33525 27.6834 2.80483 27.4813 2.40062 27.0779L0.605744 25.283C-0.201915 24.4753 -0.201915 23.1613 0.605744 22.3536L2.14443 20.815C2.34953 20.6099 2.68312 20.6099 2.88822 20.815L6.86867 24.7954C7.07377 25.0005 7.07377 25.3341 6.86867 25.5392L5.32998 27.0779C4.92653 27.4813 4.3961 27.6834 3.86568 27.6834ZM3.14442 26.3333C3.54186 26.7308 4.18874 26.7308 4.58619 26.3333L5.75297 25.1666L2.51633 21.9299L1.34954 23.0967C0.952098 23.4941 0.952098 24.141 1.34954 24.5385L3.14442 26.3333Z" fill="black"/>
<path d="M23.9752 7.68123C23.4703 7.68123 22.9722 7.48514 22.5951 7.10798C22.2134 6.72632 22.0053 6.1989 22.0241 5.65945C21.4846 5.67749 20.958 5.47012 20.5755 5.08846C19.9362 4.44909 19.8175 3.46413 20.2863 2.69253C20.3133 2.6482 20.3411 2.60763 20.3697 2.56706C20.4681 2.42957 20.5996 2.31913 20.7513 2.244C20.7724 2.23348 20.7942 2.22371 20.816 2.21545C20.8753 2.19066 20.9369 2.17112 21.0015 2.15835L26.9805 0.0306384C27.1713 -0.0377309 27.3854 0.010353 27.5289 0.154605C27.6724 0.298856 27.7205 0.511477 27.6529 0.703061L25.5237 6.68424C25.5109 6.74585 25.4921 6.80595 25.4688 6.86305C25.4591 6.8886 25.4485 6.91339 25.4358 6.93668C25.3621 7.08469 25.2539 7.21392 25.1225 7.31008C25.0789 7.34089 25.0376 7.36869 24.9917 7.39724C24.6747 7.58807 24.3238 7.68123 23.9752 7.68123ZM22.0368 4.60762C22.3096 4.60762 22.5755 4.71731 22.7701 4.9119C22.976 5.11701 23.0872 5.40025 23.0751 5.68951C23.0646 5.94495 23.1578 6.18387 23.3389 6.36493C23.6334 6.65945 24.0872 6.71505 24.4425 6.50017C24.4576 6.4904 24.4763 6.47838 24.4959 6.46561C24.5011 6.4333 24.5086 6.401 24.5199 6.37019L26.2915 1.39351L21.3141 3.1651C21.2833 3.17637 21.2517 3.18389 21.2194 3.18915C21.2074 3.20643 21.1954 3.22446 21.1841 3.24324C20.9692 3.59636 21.0241 4.0509 21.3193 4.34616C21.4996 4.52648 21.7401 4.62039 21.994 4.60987C22.0083 4.60762 22.0226 4.60762 22.0368 4.60762Z" fill="black"/>
<path d="M26.0654 4.12063C25.9309 4.12063 25.7964 4.06954 25.6935 3.96661L23.7168 1.98991C23.5117 1.78481 23.5117 1.45122 23.7168 1.24612C23.9219 1.04101 24.2555 1.04101 24.4606 1.24612L26.4373 3.22281C26.6424 3.42792 26.6424 3.7615 26.4373 3.96661C26.3344 4.06954 26.1999 4.12063 26.0654 4.12063Z" fill="black"/>
</svg>
