<svg xmlns="http://www.w3.org/2000/svg" width="20" height="20" viewBox="0 0 20 20" fill="none">
<path d="M11.0798 0.0575741C9.88515 -0.241077 8.77609 0.662628 8.69538 1.83231C8.60468 3.14681 8.40864 4.35201 8.15946 5.07095C8.00387 5.51988 7.56118 6.33589 6.86099 7.11836C6.16364 7.89765 5.25731 8.59174 4.19616 8.8812C3.35687 9.11015 2.5 9.83741 2.5 10.9002V15.9014C2.5 16.957 3.35291 17.7312 4.3099 17.8327C5.64676 17.9745 6.26475 18.3517 6.89493 18.7364L6.95443 18.7727C7.2954 18.9805 7.6772 19.2093 8.16792 19.3783C8.66368 19.549 9.2442 19.6506 10 19.6506H14.375C15.5463 19.6506 16.3737 19.0533 16.7927 18.3201C16.9977 17.9613 17.1094 17.5623 17.1094 17.1799C17.1094 16.9895 17.0809 16.7898 17.0133 16.5993C17.2651 16.2715 17.4894 15.8776 17.6242 15.4733C17.7613 15.0617 17.8386 14.5214 17.6283 14.0379C17.7147 13.8746 17.7794 13.7018 17.8275 13.5333C17.924 13.1956 17.9687 12.8242 17.9687 12.4631C17.9687 12.102 17.924 11.7307 17.8275 11.393C17.7844 11.2421 17.728 11.0877 17.6546 10.9397C18.1479 10.2254 18.1776 9.43857 17.947 8.77309C17.6905 8.03302 17.0955 7.39864 16.4476 7.18269C15.3887 6.82972 14.1934 6.83785 13.3028 6.91881C13.105 6.93679 12.9191 6.95868 12.7493 6.98193C13.3373 4.48464 12.9463 2.36502 12.6707 1.34502C12.499 0.709397 11.9846 0.283777 11.4065 0.139268L11.0798 0.0575741ZM14.375 18.4006H10C9.36163 18.4006 8.92117 18.3156 8.5749 18.1964C8.22359 18.0754 7.94231 17.9109 7.60491 17.7053L7.55503 17.6749C6.86145 17.2517 6.057 16.761 4.44171 16.5897C4.02569 16.5456 3.75 16.2266 3.75 15.9014V10.9002C3.75 10.5822 4.03237 10.2215 4.52512 10.0871C5.89433 9.71363 6.99606 8.8419 7.79249 7.95189C8.58607 7.06506 9.12288 6.10828 9.34054 5.48027C9.6438 4.60528 9.84913 3.27034 9.94242 1.91834C9.97367 1.46546 10.3933 1.17442 10.7766 1.27023L11.1034 1.35193C11.3041 1.40212 11.4263 1.53161 11.464 1.67097C11.7394 2.69069 12.1491 4.97697 11.2821 7.57796C11.2099 7.79437 11.2614 8.03289 11.4164 8.20026C11.5714 8.36758 11.8053 8.43717 12.0266 8.38194L12.0298 8.38115L12.047 8.37706C12.0629 8.3733 12.0877 8.36758 12.1206 8.36033C12.1864 8.34582 12.2845 8.32528 12.4087 8.30226C12.6578 8.25614 13.0094 8.20062 13.416 8.16366C14.2441 8.08837 15.2363 8.0965 16.0524 8.36853C16.2717 8.44165 16.6142 8.74477 16.7659 9.18243C16.8991 9.56664 16.8732 10.0185 16.4331 10.4587L15.9911 10.9006L16.4331 11.3425C16.4862 11.3957 16.5634 11.5187 16.6256 11.7364C16.6854 11.9455 16.7187 12.1992 16.7187 12.4631C16.7187 12.727 16.6854 12.9807 16.6256 13.1898C16.5634 13.4075 16.4862 13.5305 16.4331 13.5837L15.9911 14.0256L16.4331 14.4675C16.4918 14.5263 16.5683 14.6881 16.4383 15.078C16.3162 15.4443 16.0601 15.8316 15.8081 16.0837L15.3661 16.5256L15.8081 16.9675C15.8146 16.9741 15.8594 17.0296 15.8594 17.1799C15.8594 17.3248 15.8148 17.5118 15.7073 17.6999C15.5013 18.0605 15.0787 18.4006 14.375 18.4006Z" fill="#FF4545"/>
</svg>