<svg width="192" height="10" viewBox="0 0 192 10" fill="none" xmlns="http://www.w3.org/2000/svg">
<path fill-rule="evenodd" clip-rule="evenodd" d="M3.09769 9.64746C2.6367 9.64746 2.18369 9.64668 1.76812 9.5133C1.35523 9.5133 0.942343 9.38096 0.536133 9.24758C1.092 8.98082 1.63051 8.71328 2.23181 8.44653C3.07363 8.17977 3.96889 8.04639 4.84545 7.77963C6.00127 7.51287 7.17582 7.24611 8.35436 7.11273C12.9924 6.17908 17.7333 5.5127 22.5009 4.97918C36.0702 3.24525 50.1032 2.44498 64.1535 1.6447C78.7691 0.844424 93.5583 0.444286 108.463 0.310907C122.553 0.0441484 136.816 0.0441484 150.853 0.310907C160.249 0.577666 169.589 0.710525 178.883 1.11066C181.404 1.24404 183.921 1.37716 186.423 1.51054C187.732 1.51054 189.055 1.64418 190.345 1.77756C190.846 1.77756 191.348 1.91172 191.851 1.91172C191.348 2.0451 190.843 2.04406 190.337 2.17744C188.942 2.17744 187.52 2.17744 186.106 2.17744C182.897 2.31082 179.667 2.3116 176.451 2.3116C167.004 2.3116 157.565 2.31108 148.138 2.44446C119.457 2.71121 91.0529 3.51175 63.1767 5.37906C48.7415 6.31272 34.5736 7.64651 20.2013 8.71355C16.5547 8.9803 12.9135 9.24654 9.23358 9.5133C7.65684 9.5133 6.07478 9.64746 4.47265 9.64746C4.02635 9.64746 3.55869 9.64746 3.09769 9.64746Z" fill="#DD0060"/>
</svg>
