<svg xmlns="http://www.w3.org/2000/svg" xmlns:xlink="http://www.w3.org/1999/xlink" version="1.1" id="Слой_1" x="0px" y="0px" fill="#405db6" viewBox="0 0 100 100" style="enable-background:new 0 0 100 100;" xml:space="preserve">
<path d="M76.6,99.4l22.9-22.9c0.8-0.8,0.8-2.1,0-2.9l-73-73c-0.8-0.8-2.1-0.8-2.9,0L0.6,23.4c-0.8,0.8-0.8,2.1,0,2.9l73,73  c0.4,0.4,1,0.6,1.6,0.6S76.2,99.8,76.6,99.4z M24.8,5.1l70.1,70.1L75.2,94.9L5.1,24.8L24.8,5.1z M29.1,18.8l5.9-5.7  c0.8-0.8,0.8-2.1,0-2.9s-2.1-0.8-2.9,0l-5.9,5.7c-0.8,1-0.8,2.1,0,2.9c0.4,0.6,1,0.8,1.6,0.8S28.7,19.3,29.1,18.8z M34.6,35.4  L45.9,24c0.8-0.8,0.8-2.1,0-2.9s-2.1-0.8-2.9,0L31.6,32.4c-0.8,0.8-0.8,2.1,0,2.9c0.4,0.4,1,0.6,1.6,0.6S34.2,35.7,34.6,35.4z   M51.2,40.8l5.7-5.7c0.8-1,0.8-2.1,0-3.1c-0.8-0.8-2.1-0.8-2.9,0l-5.7,5.9c-0.8,0.8-0.8,2.1,0,2.9c0.4,0.4,1,0.6,1.4,0.6  C50.2,41.4,50.8,41.2,51.2,40.8z M56.6,57.4L68,46.1c0.8-0.8,0.8-2.1,0-2.9c-1-0.8-2.1-0.8-3.1,0L53.7,54.3c-0.8,1-0.8,2.1,0,3.1  c0.4,0.4,1,0.6,1.4,0.6C55.7,58,56.3,57.8,56.6,57.4z M73,62.7l5.9-5.7c0.8-0.8,0.8-2.1,0-2.9s-2.1-0.8-2.9,0l-5.9,5.7  c-0.8,0.8-0.8,2.1,0,2.9c0.4,0.4,1,0.8,1.6,0.8S72.7,63.1,73,62.7z M78.5,79.3L89.8,68c0.8-0.8,0.8-2.1,0-2.9s-2.1-0.8-2.9,0  L75.6,76.4c-0.8,0.8-0.8,2.1,0,2.9c0.4,0.4,1,0.6,1.6,0.6C77.5,79.9,78.1,79.7,78.5,79.3z"/>
</svg>