<svg width="20" height="14" viewBox="0 0 20 14" fill="none" xmlns="http://www.w3.org/2000/svg">
<path fill-rule="evenodd" clip-rule="evenodd" d="M16.6666 0.333496C18.0473 0.333496 19.1666 1.45279 19.1666 2.8335V11.1668C19.1666 12.5476 18.0473 13.6668 16.6666 13.6668H3.33325C1.95254 13.6668 0.833252 12.5476 0.833252 11.1668V2.8335C0.833252 1.45279 1.95254 0.333496 3.33325 0.333496H16.6666ZM16.044 2.00016H3.9559L9.48358 6.36408C9.78633 6.60316 10.2135 6.60316 10.5163 6.36408L16.044 2.00016ZM2.49992 2.97416V11.1668C2.49992 11.6271 2.87302 12.0002 3.33325 12.0002H16.6666C17.1268 12.0002 17.4999 11.6271 17.4999 11.1668V2.97418L11.549 7.67225C10.6408 8.38933 9.35908 8.38933 8.45083 7.67225L2.49992 2.97416Z" fill="#838383"/>
</svg>
