<svg width="20" height="20" viewBox="0 0 20 20" fill="none" xmlns="http://www.w3.org/2000/svg">
<path fill-rule="evenodd" clip-rule="evenodd" d="M10.0029 11.6695C12.074 11.6695 13.7529 9.99046 13.7529 7.91943C13.7529 5.84837 12.074 4.16943 10.0029 4.16943C7.93186 4.16943 6.25293 5.84837 6.25293 7.91943C6.25293 9.99046 7.93186 11.6695 10.0029 11.6695ZM10.0029 10.0058C8.85069 10.0058 7.9166 9.07171 7.9166 7.91943C7.9166 6.76718 8.85069 5.83311 10.0029 5.83311C11.1552 5.83311 12.0893 6.76718 12.0893 7.91943C12.0893 9.07171 11.1552 10.0058 10.0029 10.0058Z" fill="#838383"/>
<path fill-rule="evenodd" clip-rule="evenodd" d="M17.7268 9.65148C18.8042 4.82345 15.0044 0.00292969 10.0001 0.00292969C4.99719 0.00292969 1.19711 4.83006 2.27358 9.65206C3.10448 13.5684 6.46445 17.3721 8.46978 19.3557C9.32862 20.2052 10.6716 20.2052 11.5304 19.3557C13.5359 17.372 16.8961 13.568 17.7268 9.65148ZM10.0001 1.6696C13.9271 1.6696 16.9474 5.49149 16.1001 9.28848C15.6931 11.1129 14.78 12.7512 13.7085 14.2658C12.5888 15.8486 11.3192 17.2203 10.3584 18.1708C10.149 18.378 9.85128 18.378 9.64187 18.1708C8.68103 17.2204 7.41161 15.8488 6.29186 14.2661C5.22028 12.7514 4.3075 11.1134 3.90021 9.2889C3.05377 5.49733 6.07522 1.6696 10.0001 1.6696Z" fill="#838383"/>
</svg>
