<svg xmlns="http://www.w3.org/2000/svg" width="20" height="20" viewBox="0 0 20 20" fill="none">
<path fill-rule="evenodd" clip-rule="evenodd" d="M3.36993 1.37889C3.52429 1.26062 3.72491 1.22094 3.91267 1.27153L7.41602 2.21559C8.21655 1.99423 9.07031 1.875 9.95538 1.875C14.3573 1.875 18.125 4.87575 18.125 8.80208C18.125 10.6642 17.2624 12.3341 15.8959 13.5605L16.848 16.6932C16.9056 16.8827 16.87 17.0881 16.7522 17.2472C16.6343 17.4062 16.448 17.5 16.2501 17.5H13.7501C13.4937 17.5 13.2634 17.3435 13.169 17.1052L12.4895 15.39C11.6904 15.6105 10.8385 15.7292 9.95538 15.7292C9.07958 15.7292 8.23439 15.6124 7.44108 15.3955L6.83876 17.0849C6.75002 17.3338 6.51431 17.5 6.25005 17.5H3.75005C3.55306 17.5 3.3676 17.4071 3.2496 17.2494C3.13159 17.0917 3.09486 16.8875 3.15048 16.6985L4.06178 13.6023C3.48973 13.0975 3.00404 12.5162 2.62984 11.875H2.30143C1.38984 11.875 0.610345 11.2194 0.454153 10.3213L0.136617 8.49543C0.00365714 7.73091 0.59214 7.03125 1.36813 7.03125H2.05462C2.39631 5.92968 3.04625 4.94484 3.9085 4.14092L3.47787 2.95593C3.4417 2.88537 3.40687 2.81534 3.37471 2.7473C3.26593 2.51715 3.12505 2.18777 3.12505 1.87501C3.12505 1.68054 3.21557 1.49716 3.36993 1.37889ZM4.8165 2.80968C4.83764 2.84872 4.85909 2.88839 4.88077 2.92873C5.01156 3.17207 5.15897 3.45427 5.24483 3.70514C5.28716 3.82881 5.3315 3.99156 5.3312 4.16434C5.33087 4.34531 5.27801 4.6126 5.04041 4.80953C4.06379 5.61895 3.39545 6.6542 3.14558 7.79048C3.08256 8.07709 2.82862 8.28125 2.53516 8.28125H1.36813L1.68567 10.1071C1.73773 10.4065 1.99757 10.625 2.30143 10.625H3.00106C3.23687 10.625 3.45261 10.7577 3.55893 10.9682C3.92491 11.6928 4.47257 12.3493 5.16412 12.8947C5.36462 13.0528 5.44878 13.3169 5.37668 13.5619L4.58551 16.25H5.80935L6.4649 14.4113C6.58022 14.0878 6.93491 13.918 7.2592 14.031C8.08598 14.319 8.99669 14.4792 9.95538 14.4792C10.9141 14.4792 11.8248 14.319 12.6516 14.031C12.9679 13.9208 13.3148 14.0796 13.4382 14.391L14.1747 16.25H15.4069L14.5806 13.5314C14.5063 13.287 14.5883 13.0219 14.7877 12.862C16.0951 11.814 16.875 10.3702 16.875 8.80208C16.875 5.76733 13.887 3.125 9.95538 3.125C9.12657 3.125 8.33358 3.24474 7.59966 3.4633C7.48861 3.49638 7.37054 3.49792 7.25866 3.46777L4.8165 2.80968Z" fill="#FF4545"/>
<path fill-rule="evenodd" clip-rule="evenodd" d="M18.4002 5.90731C18.661 5.76505 19.0126 5.75809 19.2835 6.02903C19.5159 6.26143 19.5899 6.54951 19.5356 6.83558C19.5147 6.9458 19.4756 7.05244 19.4236 7.15415C19.5864 7.17512 19.7773 7.1875 20.0001 7.1875L20.0001 7.8125C19.5977 7.8125 19.2601 7.77596 18.9813 7.70796C18.6009 8.05187 18.0734 8.32901 17.5613 8.43143L17.4388 7.81857C17.7447 7.75739 18.065 7.61156 18.3315 7.42665C18.0343 7.20995 17.901 6.9129 17.9313 6.60955C17.9618 6.30465 18.1546 6.04127 18.4002 5.90731ZM18.7986 6.98226C18.8681 6.88298 18.9075 6.79326 18.9215 6.71912C18.9389 6.62759 18.9217 6.55108 18.8416 6.47097C18.8416 6.47097 18.8416 6.47097 18.8416 6.47097M18.8416 6.47097C18.8 6.42942 18.761 6.42247 18.6995 6.45599C18.6228 6.49781 18.5618 6.586 18.5532 6.67173C18.5472 6.73197 18.5619 6.83874 18.7435 6.951C18.7605 6.9615 18.7788 6.97195 18.7986 6.98226" fill="#FF4545"/>
<path d="M6.25005 7.8125C6.25005 8.33027 5.83032 8.75 5.31255 8.75C4.79479 8.75 4.37505 8.33027 4.37505 7.8125C4.37505 7.29473 4.79479 6.875 5.31255 6.875C5.83032 6.875 6.25005 7.29473 6.25005 7.8125Z" fill="#FF4545"/>
<path d="M7.67267 5.94195C8.38608 5.73696 9.15398 5.62501 9.95537 5.62501C10.7879 5.62501 11.5842 5.74582 12.3209 5.96624C12.6516 6.06519 12.9999 5.87732 13.0988 5.54663C13.1978 5.21594 13.0099 4.86765 12.6792 4.7687C11.8259 4.51336 10.9088 4.37501 9.95537 4.37501C9.03759 4.37501 8.15347 4.50321 7.32746 4.74056C6.9957 4.83589 6.80404 5.18211 6.89937 5.51386C6.9947 5.84562 7.34092 6.03728 7.67267 5.94195Z" fill="#FF4545"/>
</svg>