<svg xmlns="http://www.w3.org/2000/svg" xmlns:xlink="http://www.w3.org/1999/xlink" version="1.1" id="Слой_1" x="0px" y="0px" fill="#405db6" viewBox="0 0 100 97" style="enable-background:new 0 0 100 97;" xml:space="preserve">
<path d="M99.9,94.7V40.2c0-1.1-0.9-2.1-2.1-2.1H2.1C1,38.1,0,39,0,40.2l0,54.6c0,1.1,0.9,2.1,2.1,2.1h95.7  C98.9,96.9,99.9,95.9,99.9,94.7z M4,42.2h91.8v50.6H4V42.2z M13.4,41.6L49.9,5.1l36.5,36.5c1,0.8,2.1,0.8,3.1,0  c0.8-0.8,0.8-2.1,0-2.9l-38-38.1c-0.4-0.4-1-0.6-1.6-0.6c-0.6,0-1.2,0.2-1.6,0.6L10.2,38.7c-0.8,0.8-0.8,2.1,0,2.9  c0.6,0.4,1,0.6,1.6,0.6S12.8,42,13.4,41.6z M10.3,79.7c1.3,1,4.3,1.6,6.8,1.6c6.3,0,9.4-3.5,9.4-7.6c0-3.9-2.3-6.2-6.8-8  c-3.7-1.4-5.3-2.6-5.3-5.1c0-2,1.4-4.1,4.9-4.1c2.6,0,4.3,0.8,5.3,1.4l0.8-2.9c-1.2-0.6-3.2-1.2-5.9-1.2c-5.3,0-8.6,2.9-8.6,7.2  c0,3.7,2.5,6,7,7.6c3.5,1.4,5.1,2.8,5.1,5.3c0,2.7-2.2,4.7-5.7,4.7c-2.4,0-4.7-0.8-6.3-1.8L10.3,79.7z M45,72.5l2.9,8.4h3.8  l-9.2-26.8h-4.1l-9.2,26.8h3.5l2.9-8.4H45z M36.2,69.7l2.7-7.8c0.4-1.6,1-3.1,1.4-4.9l0,0c0.4,1.6,0.8,3.3,1.4,5.1l2.7,7.6  C44.4,69.7,36.2,69.7,36.2,69.7z M55.6,80.8h15v-2.7H59.1v-24h-3.5V80.8z M88.4,65.4H78.1V57H89v-2.9H74.5v26.8h15v-2.7H78v-9.8  h10.4V65.4z"/>
</svg>