<svg width="16" height="16" viewBox="0 0 16 16" fill="none" xmlns="http://www.w3.org/2000/svg">
<path xmlns="http://www.w3.org/2000/svg" d="M15.479 14.4824L11.7812 10.7694C12.732 9.67827 13.2529 8.30534 13.2529 6.87607C13.2529 3.53671 10.4388 0.819824 6.97996 0.819824C3.52112 0.819824 0.707031 3.53671 0.707031 6.87607C0.707031 10.2154 3.52112 12.9323 6.97996 12.9323C8.27846 12.9323 9.51586 12.5542 10.5738 11.8364L14.2997 15.5776C14.4554 15.7337 14.6648 15.8198 14.8893 15.8198C15.1018 15.8198 15.3033 15.7416 15.4563 15.5994C15.7814 15.2974 15.7918 14.7966 15.479 14.4824ZM6.97996 2.39971C9.53659 2.39971 11.6165 4.40775 11.6165 6.87607C11.6165 9.34438 9.53659 11.3524 6.97996 11.3524C4.42333 11.3524 2.34345 9.34438 2.34345 6.87607C2.34345 4.40775 4.42333 2.39971 6.97996 2.39971Z" fill="#2C2B3F"/>
</svg>
