<svg width="20" height="20" viewBox="0 0 20 20" fill="none" xmlns="http://www.w3.org/2000/svg" xmlns:xlink="http://www.w3.org/1999/xlink">
<path xmlns="http://www.w3.org/2000/svg" d="M10 18.75C5.16751 18.75 1.25 14.8325 1.25 10C1.25 5.16751 5.16751 1.25 10 1.25C14.8325 1.25 18.75 5.16751 18.75 10C18.75 14.8325 14.8325 18.75 10 18.75ZM10 20C15.5228 20 20 15.5228 20 10C20 4.47715 15.5228 0 10 0C4.47715 0 0 4.47715 0 10C0 15.5228 4.47715 20 10 20Z" fill="#FF4545"/>
<path xmlns="http://www.w3.org/2000/svg" d="M5.35599 11.959C5.65478 11.7862 6.03711 11.8883 6.20995 12.187C6.96735 13.4964 8.38145 14.375 10 14.375C11.6186 14.375 13.0327 13.4964 13.7901 12.187C13.963 11.8883 14.3453 11.7862 14.6441 11.959C14.9429 12.1318 15.045 12.5142 14.8721 12.813C13.9005 14.4926 12.0829 15.625 10 15.625C7.9172 15.625 6.09959 14.4926 5.12794 12.813C4.9551 12.5142 5.0572 12.1318 5.35599 11.959Z" fill="#FF4545"/>
<path xmlns="http://www.w3.org/2000/svg" d="M8.75 8.125C8.75 9.16053 8.19036 10 7.5 10C6.80964 10 6.25 9.16053 6.25 8.125C6.25 7.08947 6.80964 6.25 7.5 6.25C8.19036 6.25 8.75 7.08947 8.75 8.125Z" fill="#FF4545"/>    
<path xmlns="http://www.w3.org/2000/svg" d="M13.75 8.125C13.75 9.16053 13.1904 10 12.5 10C11.8096 10 11.25 9.16053 11.25 8.125C11.25 7.08947 11.8096 6.25 12.5 6.25C13.1904 6.25 13.75 7.08947 13.75 8.125Z" fill="#FF4545"/>
</svg>
