<svg width="18" height="18" viewBox="0 0 18 18" fill="none" xmlns="http://www.w3.org/2000/svg">
<path fill-rule="evenodd" clip-rule="evenodd" d="M13.462 17.5267C11.7786 17.105 8.33234 15.9159 5.20805 12.7916C2.0838 9.66737 0.894754 6.22111 0.472979 4.5377C0.230595 3.57028 0.66707 2.63674 1.40716 2.10809L3.34737 0.722228C4.4826 -0.0886469 6.06185 0.186511 6.85595 1.33354L8.07742 3.09792C8.59592 3.84687 8.41709 4.87337 7.67584 5.40283L6.70187 6.09853C6.84928 6.66237 7.30774 7.82029 8.74359 9.25612C10.1794 10.692 11.3373 11.1504 11.9012 11.2978L12.5968 10.3238C13.1263 9.58262 14.1528 9.4037 14.9018 9.9222L16.6662 11.1437C17.8132 11.9379 18.0883 13.517 17.2774 14.6523L15.8916 16.5925C15.3629 17.3326 14.4294 17.7691 13.462 17.5267ZM6.38656 11.6131C9.22775 14.4543 12.3631 15.5332 13.867 15.91C14.0868 15.965 14.3526 15.8796 14.5353 15.6238L15.9213 13.6835C16.1915 13.3052 16.0998 12.7788 15.7174 12.514L13.9531 11.2925L13.2065 12.3378C12.9014 12.765 12.3372 13.1 11.6802 12.9582C10.8602 12.7813 9.34434 12.2139 7.56509 10.4346C5.78584 8.65537 5.21841 7.13954 5.04148 6.31954C4.89973 5.66254 5.23476 5.09829 5.66191 4.79319L6.70712 4.0466L5.48563 2.28223C5.22093 1.89988 4.69451 1.80816 4.3161 2.07845L2.3759 3.46432C2.12003 3.64708 2.0346 3.91283 2.08968 4.13264C2.4665 5.6366 3.54541 8.77195 6.38656 11.6131Z" fill="#838383"/>
</svg>
