<svg width="40" height="40" viewBox="0 0 40 40" fill="none" xmlns="http://www.w3.org/2000/svg">
<path d="M20.0001 6.66675C17.3631 6.66675 14.7851 7.44873 12.5925 8.91381C10.3998 10.3789 8.69086 12.4613 7.6817 14.8976C6.67253 17.3339 6.40848 20.0149 6.92295 22.6012C7.43741 25.1877 8.7073 27.5634 10.572 29.4282C12.4367 31.2929 14.8125 32.5627 17.3989 33.0772C19.9852 33.5917 22.6662 33.3276 25.1026 32.3184C27.5389 31.3092 29.6212 29.6004 31.0864 27.4077C32.5514 25.2151 33.3334 22.6372 33.3334 20.0001C33.3334 16.4639 31.9286 13.0725 29.4282 10.572C26.9277 8.0715 23.5362 6.66675 20.0001 6.66675ZM26.5501 15.8001L24.3667 26.1167C24.2001 26.8501 23.7667 27.0167 23.1501 26.6834L19.8167 24.2167L18.1501 25.7667C18.0716 25.8692 17.9707 25.9526 17.8552 26.0104C17.7397 26.0681 17.6126 26.0987 17.4834 26.1001L17.7167 22.7667L23.8834 17.1834C24.1667 16.9501 23.8834 16.8167 23.4834 17.0501L15.9167 21.8001L12.5834 20.7667C11.8667 20.5501 11.8501 20.0501 12.7334 19.7167L25.5834 14.7167C26.2167 14.5334 26.7501 14.9001 26.5501 15.8001Z" fill="#007CDA"/>
</svg>
