<svg width="40" height="40" viewBox="0 0 40 40" fill="none" xmlns="http://www.w3.org/2000/svg">
<path d="M34.7352 27.0175L30.9678 32.6596L28.3091 30.3852C28.0217 30.1389 27.5982 30.1838 27.3619 30.482C27.1256 30.7817 27.1673 31.2245 27.4555 31.4694L30.6776 34.2266C30.7988 34.3305 30.9496 34.3866 31.1044 34.3866C31.1347 34.3866 31.1657 34.3845 31.1967 34.3796C31.3825 34.3529 31.5495 34.2462 31.6572 34.0855L35.8407 27.8196C36.0528 27.5017 35.978 27.0645 35.6724 26.8427C35.3661 26.6189 34.9473 26.6989 34.7352 27.0175Z" fill="#007CDA"/>
<path d="M33.7227 22.1319L37.9809 17.7053V7.78175L30.4979 0H21.0691L20.5581 0.531228L4.03945 17.6933L4.04484 17.6989L0 21.9039L16.93 39.5888L22.8519 33.4323C23.9156 37.2218 27.2737 40 31.2479 40C36.0737 40 40 35.9074 40 30.8772C40.0007 26.7432 37.3468 23.2477 33.7227 22.1319ZM29.9411 1.40351L36.6345 8.36421V17.1221L32.1305 21.8007C32.0672 21.7937 32.0019 21.7958 31.9379 21.7902C31.8881 21.786 31.8376 21.7811 31.7885 21.7768C31.7501 21.774 31.709 21.7691 31.6713 21.7663C31.5266 21.7579 31.3865 21.753 31.2485 21.753C26.4227 21.753 22.4964 25.8456 22.4964 30.8758C22.4964 31.0154 22.5004 31.1572 22.5085 31.3046C22.5112 31.3551 22.5173 31.4098 22.5206 31.4618C22.524 31.5074 22.5273 31.5544 22.5314 31.6021C22.5354 31.6554 22.5341 31.7109 22.5395 31.7642L20.9722 33.393L5.94944 17.7018L21.6259 1.40351H29.9411ZM1.9046 21.9067L4.99613 18.6926L20.0236 34.3902L16.932 37.6042L1.9046 21.9067ZM31.2485 38.5965C27.5127 38.5965 24.4225 35.6954 23.9216 31.9432L23.9196 31.9291C23.9048 31.8161 23.8974 31.7186 23.8866 31.6147C23.8812 31.5635 23.8745 31.5081 23.8705 31.4589C23.8563 31.266 23.8422 31.0737 23.8422 30.8772C23.8422 26.6211 27.1646 23.1579 31.2479 23.1579C31.437 23.1579 31.6229 23.1726 31.8087 23.1874C31.8383 23.1902 31.872 23.1951 31.9022 23.1979C32.0234 23.2105 32.1419 23.2218 32.2766 23.2414L32.2934 23.2435C35.8825 23.7761 38.6535 26.9916 38.6535 30.8765C38.6542 35.134 35.3317 38.5965 31.2485 38.5965Z" fill="#007CDA"/>
<path d="M28.5657 11.8387C30.0266 11.8387 31.2149 10.6001 31.2149 9.07729C31.2149 7.55448 30.0266 6.31519 28.5657 6.31519C27.1047 6.31519 25.9158 7.55448 25.9158 9.07729C25.9158 10.6001 27.1047 11.8387 28.5657 11.8387ZM28.5657 7.7194C29.284 7.7194 29.8684 8.32852 29.8684 9.07799C29.8684 9.82606 29.284 10.4359 28.5657 10.4359C27.8473 10.4359 27.2623 9.82676 27.2623 9.07799C27.2623 8.32852 27.8466 7.7194 28.5657 7.7194Z" fill="#007CDA"/>
</svg>
