<svg width="40" height="40" viewBox="0 0 40 40" fill="none" xmlns="http://www.w3.org/2000/svg">
<path d="M39.9627 26.5016C39.8699 26.2395 39.6155 26.0487 39.3115 26.0102L33.0898 25.2323L30.3122 20.3894C30.0386 19.9122 29.1618 19.9122 28.889 20.3894L26.1114 25.2323L19.8897 26.0102C19.5849 26.0487 19.3313 26.2387 19.2385 26.5016C19.1457 26.7645 19.2289 27.0502 19.4537 27.2381L23.9378 31.0003L22.881 36.3054C22.8282 36.5718 22.9482 36.8425 23.1914 37.0039C23.4354 37.1661 23.761 37.1918 24.0306 37.0675L29.6002 34.546L35.1715 37.0661C35.2851 37.1189 35.4091 37.1439 35.5331 37.1439C35.7019 37.1439 35.8699 37.0968 36.0107 37.0032C36.2539 36.8418 36.3739 36.5718 36.3211 36.3046L35.2643 30.9995L39.7483 27.2373C39.9715 27.0495 40.0555 26.7638 39.9627 26.5016ZM33.8523 30.2238C33.6555 30.3888 33.5651 30.6317 33.6123 30.8688L34.4635 35.1453L29.961 33.1082C29.8466 33.0567 29.7234 33.031 29.5994 33.031C29.4754 33.031 29.3514 33.0567 29.2378 33.1082L24.7354 35.1453L25.5866 30.8688C25.6346 30.6317 25.5434 30.3888 25.3466 30.2238L21.7633 27.2188L26.7434 26.5959C27.001 26.5638 27.2258 26.4216 27.3442 26.2145L29.6002 22.2822L31.8546 26.2137C31.973 26.4209 32.1978 26.563 32.4554 26.5952L37.4355 27.2181L33.8523 30.2238Z" fill="#007CDA"/>
<path d="M13.6001 27.4079L1.60001 38.1224V9.28612H25.6002V19.2863C25.6002 19.6813 25.9578 20.0006 26.4002 20.0006C26.8426 20.0006 27.2002 19.6813 27.2002 19.2863V9.28612V0.000244141H0V9.28612V38.8888C0 39.3395 0.300803 39.7417 0.767207 39.9152C0.921608 39.9724 1.08401 40.0002 1.24561 40.0002C1.56801 40.0002 1.88562 39.8881 2.12482 39.6745L13.6001 29.4279L16.3209 31.8565C16.6337 32.1358 17.1394 32.1358 17.4522 31.8565C17.765 31.5772 17.765 31.1258 17.4522 30.8465L13.6001 27.4079ZM1.60001 1.42884H25.6002V7.85753H1.60001V1.42884Z" fill="#007CDA"/>
</svg>
