<svg width="40" height="40" viewBox="0 0 40 40" fill="none" xmlns="http://www.w3.org/2000/svg">
<path d="M39.3758 23.3819L37.3401 21.2813C36.5086 20.4234 35.1565 20.4249 34.325 21.2813L23.332 32.6251L21.8169 38.3586L21.4462 38.7411C21.1691 39.0271 21.1684 39.4885 21.4419 39.7766L21.4384 39.7914L21.4519 39.7877C21.5905 39.9277 21.7705 40 21.9512 40C22.1341 40 22.3169 39.9277 22.4562 39.784L22.8277 39.4007L28.3835 37.8375L39.3765 26.4937C40.208 25.6358 40.208 24.2398 39.3758 23.3819ZM24.9813 33.0084L32.2978 25.4596L35.3286 28.5861L28.012 36.1357L24.9813 33.0084ZM24.3363 34.4272L26.6363 36.8005L23.4734 37.6908L24.3363 34.4272ZM38.3658 25.4515L36.3379 27.544L33.3071 24.4174L35.335 22.325C35.61 22.0412 36.0565 22.0419 36.3308 22.3242L38.3665 24.4248C38.6408 24.7071 38.6408 25.1685 38.3658 25.4515Z" fill="#007CDA"/>
<path d="M19.2861 8.84521C18.8918 8.84521 18.5718 9.17467 18.5718 9.58226C18.5718 9.98984 18.8918 10.3193 19.2861 10.3193H32.1434C32.5377 10.3193 32.8577 9.98984 32.8577 9.58226C32.8577 9.17467 32.5377 8.84521 32.1434 8.84521H19.2861Z" fill="#007CDA"/>
<path d="M32.8577 19.9009C32.8577 19.4933 32.5377 19.1638 32.1434 19.1638H19.2861C18.8918 19.1638 18.5718 19.4933 18.5718 19.9009C18.5718 20.3084 18.8918 20.6379 19.2861 20.6379H32.1434C32.5377 20.6379 32.8577 20.3077 32.8577 19.9009Z" fill="#007CDA"/>
<path d="M14.7002 5.33761C14.4017 5.07227 13.9502 5.10691 13.6931 5.41721L9.23013 10.7888L6.50008 8.67641C6.18436 8.43318 5.73721 8.49804 5.50006 8.82382C5.26292 9.14885 5.3272 9.61098 5.64292 9.85494L8.90798 12.3823C9.03656 12.4818 9.18656 12.5297 9.33656 12.5297C9.53871 12.5297 9.73871 12.442 9.87943 12.2717L14.7774 6.37536C15.0338 6.06728 14.9995 5.60221 14.7002 5.33761Z" fill="#007CDA"/>
<path d="M14.7002 15.6565C14.4017 15.3911 13.9502 15.4258 13.6931 15.7361L9.23013 21.1076L6.50008 18.9953C6.18436 18.7513 5.73721 18.8176 5.50006 19.1427C5.26292 19.4677 5.3272 19.9298 5.64292 20.1738L8.90798 22.7011C9.03656 22.8006 9.18656 22.8485 9.33656 22.8485C9.53871 22.8485 9.73871 22.7608 9.87943 22.5905L14.7774 16.6942C15.0338 16.3861 14.9995 15.9211 14.7002 15.6565Z" fill="#007CDA"/>
<path d="M13.6924 26.7914L9.22942 32.1622L6.50008 30.0498C6.18436 29.8059 5.73721 29.8722 5.50006 30.1972C5.26292 30.5223 5.3272 30.9844 5.64292 31.2283L8.90798 33.7557C9.03656 33.8552 9.18656 33.9031 9.33656 33.9031C9.53871 33.9031 9.73871 33.8154 9.87943 33.6451L14.7774 27.7495C15.0338 27.4407 14.9995 26.9756 14.7002 26.711C14.4009 26.4464 13.9495 26.4818 13.6924 26.7914Z" fill="#007CDA"/>
<path d="M17.8575 38.3269H8.6973C4.68937 38.3269 1.4286 34.9623 1.4286 30.8268V8.97422C1.4286 4.83868 4.68937 1.47482 8.6973 1.47482H29.8748C33.8828 1.47482 37.1435 4.83868 37.1435 8.97422V17.689C37.1435 18.0966 37.4635 18.426 37.8578 18.426C38.2521 18.426 38.5721 18.0966 38.5721 17.689V8.97422C38.5721 4.02572 34.6706 0 29.8748 0H8.6973C3.9015 0.000737042 0 4.02572 0 8.97422V30.826C0 35.7745 3.9015 39.8003 8.6973 39.8003H17.8575C18.2518 39.8003 18.5718 39.4708 18.5718 39.0632C18.5718 38.6556 18.2518 38.3269 17.8575 38.3269Z" fill="#007CDA"/>
</svg>
