<svg width="40" height="40" viewBox="0 0 40 40" fill="none" xmlns="http://www.w3.org/2000/svg">
<path d="M35.2542 23.3756V10.1695V3.38983C35.2542 3.01492 34.9505 2.71186 34.5763 2.71186H31.1864V0.677966C31.1864 0.303051 30.8827 0 30.5085 0H25.7627C25.3885 0 25.0847 0.303051 25.0847 0.677966V2.71186H10.1695V0.677966C10.1695 0.303051 9.86576 0 9.49153 0H4.74576C4.37153 0 4.0678 0.303051 4.0678 0.677966V2.71186H0.677966C0.303729 2.71186 0 3.01492 0 3.38983V10.1695V37.9661C0 38.341 0.303729 38.6441 0.677966 38.6441H26.5112C27.8685 39.4983 29.4685 40 31.1864 40C36.0461 40 40 36.0461 40 31.1864C40 27.7946 38.0705 24.8481 35.2542 23.3756ZM26.4407 1.35593H29.8305V3.38983V5.42373H26.4407V3.38983V1.35593ZM5.42373 1.35593H8.81356V3.38983V5.42373H5.42373V3.38983V1.35593ZM1.35593 4.0678H4.0678V6.1017C4.0678 6.47661 4.37153 6.77966 4.74576 6.77966H9.49153C9.86576 6.77966 10.1695 6.47661 10.1695 6.1017V4.0678H25.0847V6.1017C25.0847 6.47661 25.3885 6.77966 25.7627 6.77966H30.5085C30.8827 6.77966 31.1864 6.47661 31.1864 6.1017V4.0678H33.8983V9.49153H1.35593V4.0678ZM1.35593 37.2881V10.8475H33.8983V22.8041C33.7654 22.7614 33.6298 22.7268 33.4942 22.6895C33.3688 22.6549 33.2434 22.621 33.1166 22.5919C33.002 22.5661 32.8861 22.5437 32.7702 22.5227C32.6047 22.4922 32.4386 22.4671 32.2719 22.4461C32.179 22.4346 32.0868 22.4217 31.9932 22.4129C31.7261 22.3892 31.4569 22.3729 31.1864 22.3729C30.9573 22.3729 30.7329 22.3898 30.5085 22.4075V21.6949V20.339V14.2373H24.4068H23.0508H18.3051H16.9492H12.2034H10.8475H4.74576V20.339V21.6949V26.4407V27.7966V33.8983H10.8475H12.2034H16.9492H18.3051H22.8041C22.8237 33.958 22.8481 34.0156 22.8685 34.0746C22.9254 34.2393 22.9817 34.4047 23.0488 34.5654C23.0861 34.6556 23.1302 34.7417 23.1708 34.8298C23.2488 35.002 23.3281 35.1736 23.417 35.3403C23.4563 35.4129 23.5003 35.4827 23.5417 35.5546C23.642 35.7302 23.7437 35.9037 23.8563 36.0719C23.8976 36.1336 23.9431 36.1919 23.9858 36.2529C24.1051 36.4224 24.2271 36.5905 24.3593 36.7519C24.4081 36.8115 24.461 36.8671 24.5112 36.9254C24.6163 37.0475 24.7166 37.1722 24.8285 37.2888L1.35593 37.2881ZM27.3308 23.2732C27.2576 23.3085 27.1831 23.3417 27.1112 23.379C26.9837 23.4454 26.8603 23.5186 26.7369 23.5912C26.6292 23.6542 26.5214 23.7186 26.4163 23.7858C26.3098 23.8549 26.2061 23.9254 26.1031 23.9986C25.9858 24.0814 25.8719 24.1681 25.7586 24.2563C25.6678 24.3275 25.577 24.398 25.4895 24.4732C25.3708 24.5736 25.2576 24.68 25.1444 24.7864C25.0664 24.8603 24.9858 24.9315 24.9105 25.0075C24.7878 25.1322 24.6719 25.2644 24.5566 25.3966C24.5078 25.4529 24.4542 25.5044 24.4061 25.562V21.6949H29.1519V22.6183C29.1403 22.621 29.1295 22.6251 29.1186 22.6278C28.4942 22.779 27.8963 22.9966 27.3308 23.2732ZM22.7593 28.6095C22.7356 28.6875 22.72 28.7675 22.6983 28.8461C22.6441 29.0427 22.5885 29.2393 22.5478 29.442C22.5159 29.5986 22.4983 29.7586 22.4753 29.9173C22.457 30.0454 22.4312 30.1715 22.4176 30.3017C22.3885 30.5939 22.3729 30.8895 22.3729 31.1864C22.3729 31.4312 22.3864 31.6786 22.4088 31.9268C22.4129 31.9722 22.4129 32.0183 22.4176 32.0637C22.4285 32.1736 22.4502 32.28 22.4651 32.3885C22.4725 32.44 22.4753 32.4915 22.4834 32.5424H18.3051V27.7966H23.0508V27.8014C23.0441 27.8176 23.04 27.8346 23.0332 27.8508C22.9315 28.0983 22.8386 28.3512 22.7593 28.6095ZM6.1017 27.7966H10.8475V32.5424H6.1017V27.7966ZM6.1017 21.6949H10.8475V26.4407H6.1017V21.6949ZM29.1525 20.339H24.4068V15.5932H29.1525V20.339ZM23.0508 20.339H18.3051V15.5932H23.0508V20.339ZM23.0508 26.4407H18.3051V21.6949H23.0508V26.4407ZM12.2034 21.6949H16.9492V26.4407H12.2034V21.6949ZM16.9492 20.339H12.2034V15.5932H16.9492V20.339ZM10.8475 20.339H6.1017V15.5932H10.8475V20.339ZM12.2034 27.7966H16.9492V32.5424H12.2034V27.7966ZM31.1864 38.6441C29.6556 38.6441 28.2312 38.179 27.0461 37.3844C26.8149 37.2298 26.5966 37.0617 26.3871 36.8854C26.3139 36.8231 26.2447 36.7566 26.1742 36.6915C26.0407 36.5702 25.9112 36.4454 25.7878 36.3159C25.7085 36.2325 25.6319 36.1478 25.5566 36.0617C25.4454 35.9336 25.341 35.8014 25.2393 35.6664C25.1742 35.5803 25.1071 35.497 25.0454 35.4081C24.8956 35.1905 24.7546 34.9668 24.6285 34.7349C24.5993 34.6807 24.5763 34.6237 24.5485 34.5688C24.4495 34.3749 24.3573 34.1783 24.2753 33.9763C24.24 33.8881 24.2095 33.798 24.1769 33.7085C24.1132 33.5308 24.0549 33.3505 24.0041 33.1681C23.9925 33.1261 23.9824 33.0841 23.9715 33.042C23.8949 32.7437 23.8386 32.4475 23.7986 32.1525C23.7959 32.1315 23.7919 32.1105 23.7892 32.0888C23.7498 31.7844 23.7288 31.4827 23.7288 31.1864C23.7288 30.9295 23.7417 30.6746 23.7681 30.4217C23.7702 30.4007 23.7756 30.3803 23.7776 30.3593C23.8034 30.1281 23.8373 29.8976 23.8847 29.6705C23.8895 29.6488 23.8969 29.6278 23.9017 29.6061C23.9505 29.381 24.0081 29.1573 24.078 28.9363C24.0861 28.9105 24.0976 28.8854 24.1058 28.8597C24.1756 28.6481 24.2529 28.438 24.3424 28.2319C24.4264 28.038 24.5173 27.8475 24.617 27.6624L24.6841 27.5464C24.7112 27.4976 24.743 27.4515 24.7715 27.4034C24.8895 27.2047 25.0156 27.0122 25.1492 26.8264C25.1824 26.7803 25.2169 26.7349 25.2515 26.6895C25.3736 26.5281 25.5024 26.3729 25.6366 26.2231C25.6834 26.1708 25.7302 26.118 25.7783 26.0671C25.9112 25.9261 26.0508 25.7925 26.1939 25.6631C26.2447 25.617 26.2942 25.5695 26.3464 25.5247C26.5146 25.381 26.6888 25.2461 26.8685 25.118C26.8969 25.0976 26.9241 25.0753 26.9525 25.0549C27.8373 24.4434 28.8536 24.0244 29.9437 23.8414L29.958 23.8393C30.358 23.7722 30.7668 23.7288 31.1864 23.7288C31.4502 23.7288 31.7125 23.7431 31.9729 23.7715C32.0136 23.7756 32.0529 23.7851 32.0936 23.7898C32.3159 23.8176 32.5376 23.8508 32.7566 23.8983C32.7837 23.9044 32.8095 23.9125 32.8359 23.9186C33.0692 23.9722 33.3003 24.0346 33.5288 24.1112C33.5444 24.1166 33.5593 24.1227 33.5749 24.1281C33.8088 24.2081 34.0393 24.2997 34.2678 24.4034C36.8454 25.579 38.6441 28.1742 38.6441 31.1864C38.6441 35.2983 35.2983 38.6441 31.1864 38.6441Z" fill="#007CDA"/>
<path d="M35.2542 30.5629H31.8644V27.1731C31.8644 26.7982 31.5607 26.4951 31.1864 26.4951C30.8122 26.4951 30.5085 26.7982 30.5085 27.1731V30.5629H27.1186C26.7444 30.5629 26.4407 30.866 26.4407 31.2409C26.4407 31.6158 26.7444 31.9188 27.1186 31.9188H30.5085V35.3087C30.5085 35.6836 30.8122 35.9866 31.1864 35.9866C31.5607 35.9866 31.8644 35.6836 31.8644 35.3087V31.9188H35.2542C35.6285 31.9188 35.9322 31.6158 35.9322 31.2409C35.9322 30.866 35.6285 30.5629 35.2542 30.5629Z" fill="#007CDA"/>
</svg>
